<?xml version="1.0" encoding="UTF-8"?>
<svg id="Layer_1" data-name="Layer 1" xmlns="http://www.w3.org/2000/svg" version="1.1" viewBox="0 0 4000 4000">
  <defs>
    <style>
      .cls-1 {
        fill: #f8b22f;
      }

      .cls-1, .cls-2, .cls-3, .cls-4, .cls-5, .cls-6, .cls-7, .cls-8, .cls-9 {
        stroke-width: 0px;
      }

      .cls-1, .cls-2, .cls-3, .cls-4, .cls-5, .cls-6, .cls-7, .cls-9 {
        fill-rule: evenodd;
      }

      .cls-2 {
        fill: #b75400;
      }

      .cls-3 {
        fill: #97da04;
      }

      .cls-4 {
        fill: #ebf855;
      }

      .cls-5 {
        fill: #ffce4b;
      }

      .cls-6 {
        fill: #e57e22;
      }

      .cls-7 {
        fill: #fce2a6;
      }

      .cls-8 {
        fill: #231916;
      }

      .cls-9 {
        fill: #006c11;
      }
    </style>
  </defs>
  <path class="cls-5" d="M2293.07,709.09c792.29,0,1434.57,642.28,1434.57,1434.57s-642.28,1434.57-1434.57,1434.57-1434.57-642.28-1434.57-1434.57,642.28-1434.57,1434.57-1434.57"/>
  <path class="cls-5" d="M2950.78,1992.35c-14.59-32.09-22.94-62.46-27.37-82.51-137.33,18.1-840.81,76.59-1203.87-561.34-67.86-119.22-111.68-268.84-156.02-420.22-44.67-152.48-89.87-306.81-160.08-429.96-14.26-10.21-29.55-17.81-45.16-23.37-12.54-4.47-25.29-7.63-37.89-9.78-53.69,485.92,36.9,845.12,201.88,1102.07,104.96,163.49,240.1,285.72,387.27,372.93,147.35,87.32,306.89,139.61,460.4,163.11,238.25,36.48,460.91,3.72,599.81-74.95-7.26-11.92-13.54-24.07-18.97-35.99"/>
  <path class="cls-7" d="M2080.59,1734.07c-133.63-85.5-260.43-208.75-361.05-385.56-67.86-119.22-111.68-268.84-156.02-420.22-44.67-152.48-89.87-306.81-160.08-429.96-14.26-10.21-29.55-17.81-45.15-23.37-12.55-4.47-25.29-7.63-37.89-9.78-11.61,105.07-16.46,204.2-15.29,297.66,19.47-61.59,67.1-108.73,182.99,71.22,0,0,17.72,660.57,592.2,899.89l.3.12Z"/>
  <path class="cls-6" d="M2998.44,2067.64c-147.65,85.6-384.32,121.97-635.83,83.46-159.13-24.36-324.66-78.66-477.77-169.39-153.28-90.83-294.01-218.1-403.29-388.3-170.33-265.29-264.1-634.58-209.38-1132.16-37.77-.06-68.76,6.44-81.69,9.63-70.99,81.31-119.32,186.01-145.81,304.78-32.09,143.82-32.2,308.08-1.84,476.61,30.49,169.21,91.6,342.44,181.82,503.42,182.51,325.62,484.15,601.34,892.37,692.4,203.6,45.42,419.66,72.17,602.73,30.38,171.7-39.2,315.14-139.76,392.26-344.41-48.99-9.47-85.9-35.07-113.59-66.42"/>
  <path class="cls-3" d="M3023.34,2021.54c9.65,12.96,20.93,25.11,34.08,35.46,20.14,15.77,44.56,27.28,74.13,31.16,1.04-1.73,2.18-3.58,3.42-5.55,30.32-48.24,119.83-165.56,261.51-141.72,2.11.35,4.23.74,6.36,1.16,7.56.05,46.94-2.09,81.72-49.57l.38-.52,1.29-1.41c.1-.11,35.51-36.45-73.11-160.9-11.37-7.08-64.33-35.98-115.07,4.48l-1.02.75c-.57.4-185.43,133.59-326.05,166.66,6.38,28.2,21.2,78.15,52.36,120"/>
  <path class="cls-3" d="M1301.12,414.04c17.19,1.41,35.05,4.22,52.9,8.97-14.14-18.59-29.16-36.05-45.22-52.2-21.11,12.86-41.03,27.15-59.78,42.77,16.06-.96,33.71-1.06,52.1.46"/>
  <path class="cls-8" d="M997.46,765.06c43.59-195.42,143.5-355.94,303.14-445.42l15.43-8.65,12.88,11.99c148.18,138.04,215.18,366.79,281.04,591.63,43.54,148.65,86.58,295.57,151.66,409.92,385.91,678.05,1174.83,534.4,1177.11,534.01l.53-.04c126.44-19.14,315.2-152.58,328.79-162.27,85.64-68.06,174.56-5.15,174.82-4.97l2.37,1.63,2.01,2.29c126.78,144.08,85.5,213.81,76.26,226.03l.06.04c-54.22,74.01-124.8,69.06-125.01,69.05l-1.86-.11-1.53-.31c-138-28.33-219.07,116.57-227.85,133.16-80.83,241.41-242.05,358.14-436.78,402.6-191.54,43.72-414.63,16.39-624.08-30.33-423.04-94.38-735.25-379.41-923.86-715.94-93-165.92-155.95-344.32-187.33-518.47-31.5-174.84-31.28-345.73,2.21-495.84M1308.8,370.8c-137.73,83.87-224.87,228.93-264.11,404.85-32.09,143.82-32.2,308.08-1.84,476.61,30.49,169.21,91.6,342.44,181.82,503.42,182.51,325.62,484.15,601.34,892.37,692.4,203.6,45.42,419.66,72.17,602.73,30.38,179.39-40.95,327.92-148.88,402.21-372.5l.55-1.66.88-1.72c.29-.57,98.2-196.06,279.42-160.53,7.56.05,46.94-2.09,81.72-49.57l.38-.52,1.29-1.41c.1-.11,35.51-36.45-73.11-160.9-11.37-7.08-64.33-35.98-115.07,4.48l-1.02.75c-.6.43-207.54,149.52-350.07,171.37v.05c-2.37.41-824.51,150.13-1227.42-557.81-67.86-119.22-111.68-268.84-156.02-420.22-62.02-211.75-125.09-427.04-254.71-557.48Z"/>
  <path class="cls-8" d="M2966.78,1879.11c.08.58,26.24,203.59,179.2,210.3l-2.04,48.36c-193.78-8.5-224.94-251.32-225.03-252.02l47.87-6.64Z"/>
  <path class="cls-8" d="M1312.44,340.69l23.9,3.66c-1.15,7.49-2.25,14.93-3.33,22.36l-20.57-26.02ZM1286.59,350.11c.65-4.36,1.28-8.7,1.95-13.08l23.9,3.66-25.85,9.42ZM3017.02,2056.31c-145.87,93.66-392.07,134.96-654.41,94.79-159.13-24.36-324.66-78.66-477.77-169.39-153.28-90.83-294.01-218.1-403.29-388.3-172.14-268.11-266.09-642.45-207.58-1148.08,15.45-.24,32.06-.04,48.56.94-58.18,495.53,32.61,860.71,199.73,1120.99,104.96,163.49,240.1,285.72,387.27,372.93,147.35,87.32,306.89,139.61,460.4,163.11,250.74,38.39,484.21.1,620.94-87.69l26.15,40.7Z"/>
  <path class="cls-8" d="M1358.27,474.96c-20.32-7.24-41.2-11.05-61.09-12.69-61.65-5.08-113.02,10.28-113.17,10.32l-40.76,11.93,47.97-70.59,16.64-28.79c5.77-5.05,11.65-9.98,17.63-14.79,23.4-18.81,48.43-35.76,75.11-50.72l15.43-8.65,12.88,11.99c22.34,20.81,42.85,43.72,61.8,68.38,18.75,24.41,36.03,50.66,52.08,78.4l9.7,16.76-.13.08,8.76,55.44-53.88-40.92c-15.32-11.64-31.95-20.11-48.95-26.17M1301.12,414.04c17.19,1.41,35.05,4.22,52.93,8.97l-1.66-2.17c-13.65-17.78-28.15-34.51-43.6-50.05-18.58,11.31-36.23,23.72-52.94,37.15-2.31,1.86-4.61,3.74-6.89,5.64,16.08-.97,33.75-1.06,52.16.46Z"/>
  <path class="cls-8" d="M2939.25,1858.52c126.44-19.14,315.2-152.58,328.79-162.27,85.64-68.06,174.56-5.15,174.82-4.97l2.37,1.63,2.01,2.29c126.78,144.08,85.5,213.81,76.26,226.03l.06.04c-54.22,74.01-124.8,69.06-125.01,69.05l-1.86-.11-1.53-.31c-146.12-29.99-228.42,134.25-228.66,134.72l-7.07,13.85-15.49-.68c-37.25-1.63-68.67-12.08-95.15-27.96-26.07-15.63-47.18-36.56-64.21-59.44-53.78-72.26-65.64-164.49-65.68-164.75l-3.11-23.55,23.47-3.55ZM3297.03,1734.89c-.56.4-185.43,133.57-326.05,166.66,6.38,28.2,21.2,78.15,52.36,120,13.43,18.04,30.01,34.5,50.41,46.73,16.51,9.9,35.65,17.01,57.8,19.89,26.9-44.6,120.09-175.76,271.29-146.11,7.56.05,46.94-2.09,81.72-49.57l.38-.52,1.29-1.41c.1-.11,35.51-36.45-73.11-160.9-11.37-7.08-64.33-35.98-115.07,4.48l-1.02.75Z"/>
  <path class="cls-2" d="M2362.61,2151.1c-159.13-24.36-324.66-78.66-477.76-169.39-4.53-2.69-9.05-5.4-13.55-8.14-4.61,76.9-106.76,66.96-201.88,40.57-84.56-23.46-163.57-59.92-163.57-59.92,265,233.63,550.34,303.74,798.01,303.41,313.11-.42,566-113.42,641.42-150.97-2.15-3.5-4.04-6.7-5.67-9.52-4.9-8.5-7.43-13.62-7.47-13.73-.04-.08-.06-.13-.07-.13l-11.54-23.18,5.01-2.61c-40.4,20.43-148.59,70.89-296.88,107.08-84.3,4.66-174.19.59-266.05-13.48M2303.86,2257.63c313.11-.42,566-113.42,641.44-150.98-75.45,37.56-328.34,150.56-641.44,150.98Z"/>
  <path class="cls-5" d="M3002.72,2181.99c-26.4-27.91-45.75-56.25-57.42-75.35-135.13,67.27-839.46,376.54-1439.46-152.43-112.13-98.86-210.26-237.55-309.54-377.88-100-141.35-201.22-284.4-317.17-386.48-18.31-5.48-36.76-7.89-54.81-8.1-14.51-.16-28.77,1.09-42.51,3.33,116.65,519.82,337.16,857.96,598.14,1064.4,166.05,131.35,348.6,209.49,531.15,247.29,182.77,37.84,365.71,35.27,532.24,5.16,258.46-46.73,476.35-159.3,591.66-289.55-11.7-9.72-22.48-20.02-32.28-30.39"/>
  <path class="cls-7" d="M1771.85,2134.88c-89.49-44.77-178.85-103.82-266-180.66-112.14-98.85-210.26-237.55-309.54-377.87-100-141.35-201.22-284.41-317.17-386.48-18.31-5.48-36.76-7.89-54.81-8.1-14.51-.16-28.77,1.09-42.51,3.33,35.39,157.71,80.36,298.67,133.1,424.33.62-1.54,57.32-137.77,482.83,324.35,0,0,124.92,194.78,374.11,201.11"/>
  <path class="cls-6" d="M3078.5,2242.72c-121.88,140.49-352.93,261.74-625.79,311.07-172.63,31.21-362.45,33.84-552.37-5.48-190.13-39.36-380.21-120.73-553.09-257.46-269.44-213.12-496.8-560.55-616.52-1092.75-38.95,13.31-68.6,30.98-80.78,38.84-44.39,108.92-57.14,233.94-42.41,365.73,17.84,159.59,75.86,328.92,166.81,491.87,91.32,163.61,215.61,320.52,365.58,454.49,303.36,271.01,711.83,448.4,1164.8,397.77,225.91-25.25,458.06-74.15,631.95-182.03,163.09-101.17,275.33-255.59,282.39-493.8-53.84,7.58-100.95-5.74-140.57-28.25"/>
  <path class="cls-3" d="M3087.84,2186.4c14.53,9.95,30.45,18.47,47.67,24.49,26.33,9.12,55.58,12.35,87.43,5.88.47-2.14.98-4.46,1.56-6.93,14.17-60.45,64.91-213.05,219.36-238.62,2.3-.38,4.62-.73,6.96-1.06,7.81-2.62,47.64-18.77,66.68-80.01l.2-.67.83-1.91c.06-.15,23.7-50.14-132.3-139.95-14.22-3.27-79.03-14.31-117.01,45.35l-.79,1.13c-.44.62-143.83,203.31-277.05,287.16,16.55,26.82,49.51,73.04,96.43,105.15"/>
  <path class="cls-3" d="M743.85,1139.2c18.21-4.62,37.62-8.06,57.7-9.48-21.15-14.16-42.82-26.83-65.08-37.8-17.21,20.72-32.68,42.51-46.47,65.25,16.22-6.68,34.38-13.02,53.86-17.97"/>
  <path class="cls-8" d="M555.13,1608.47c-24.24-216.84,21.91-417.64,154.78-566.36l12.84-14.37,17.52,7.8c201.58,89.83,351.6,301.87,499.06,510.29,97.49,137.79,193.84,273.98,301.4,368.8,637.74,562.25,1399.99,134.95,1402.2,133.74l.53-.23c123.55-64.48,270.87-268.81,281.44-283.61,64.17-100.46,178.08-67.1,178.41-67.01l3.02.84,2.88,1.64c181.66,103.62,163.8,190.1,158.6,205.97l.06.02c-29.68,95.48-104.18,115.36-104.39,115.42l-1.95.54-1.69.22c-152.26,19.65-184.51,197.68-187.7,217.89,2.14,277.42-122.7,454.79-307.67,569.54-181.92,112.86-421.53,163.65-653.94,189.63-469.41,52.47-892.08-130.8-1205.59-410.88-154.57-138.09-282.61-299.67-376.58-468.05-94.36-169.05-154.61-345.26-173.23-511.82M736.47,1091.93c-112.27,135.19-150.74,315.54-128.92,510.74,17.84,159.59,75.86,328.92,166.81,491.87,91.32,163.61,215.61,320.52,365.58,454.49,303.36,271.01,711.83,448.4,1164.8,397.77,225.91-25.25,458.06-74.15,631.95-182.03,170.39-105.7,285.28-269.51,282.69-526.28v-1.91s.28-2.09.28-2.09c.1-.68,31.82-236.83,231.16-264.34,7.81-2.62,47.64-18.77,66.68-80.01l.2-.67.83-1.91c.06-.15,23.7-50.14-132.3-139.95-14.22-3.27-79.03-14.31-117.01,45.35l-.79,1.13c-.47.65-160.99,227.56-300.14,300.54l.02.04c-2.3,1.26-796.65,446.58-1462.49-140.45-112.13-98.86-210.26-237.55-309.54-377.88-138.87-196.28-280.07-395.86-459.84-484.42Z"/>
  <path class="cls-8" d="M2979.12,2059.62c.29.57,99.11,200.55,259.13,153.32l15.01,50.57c-202.72,59.83-320.78-179.41-321.13-180.09l46.99-23.8Z"/>
  <path class="cls-8" d="M729.56,1059.6l25.93-4.68c1.47,8.12,2.97,16.18,4.49,24.22l-30.41-19.54ZM706.26,1078.46c-.87-4.72-1.77-9.42-2.63-14.17l25.93-4.69-23.3,18.86ZM3093.63,2224.47c-117.19,148.16-356.32,277.86-640.92,329.32-172.63,31.21-362.45,33.84-552.37-5.48-190.13-39.36-380.21-120.73-553.09-257.46-272.31-215.4-501.63-567.95-620.3-1109.79,15.84-5.72,33.03-11.39,50.38-16.22,115.43,531.31,338.26,875.55,602.62,1084.65,166.05,131.35,348.6,209.49,531.15,247.29,182.77,37.84,365.71,35.27,532.24,5.16,272.01-49.18,499.08-171.29,608.93-310.16l41.36,32.7Z"/>
  <path class="cls-8" d="M824.32,1181.76c-23.51-.27-46.38,3.19-67.46,8.54-65.34,16.59-112.84,50.6-112.98,50.7l-37.79,26.72,24.45-89.73,6.95-35.56c4.17-7.24,8.48-14.41,12.94-21.48,17.46-27.66,37.26-54,59.46-78.86l12.84-14.38,17.52,7.81c30.39,13.54,59.64,29.89,87.9,48.6,27.96,18.52,55.06,39.45,81.42,62.36l15.93,13.84-.11.13,28.64,54.04-70.02-23.1c-19.91-6.57-40.04-9.41-59.71-9.64M743.85,1139.2c18.21-4.62,37.62-8.06,57.73-9.49l-2.48-1.65c-20.37-13.49-41.23-25.6-62.65-36.15-15.15,18.23-28.94,37.27-41.41,57.03-1.73,2.74-3.43,5.49-5.1,8.25,16.23-6.69,34.41-13.04,53.92-17.99Z"/>
  <path class="cls-8" d="M2943.46,2048.14c123.55-64.48,270.87-268.81,281.44-283.61,64.17-100.46,178.08-67.1,178.41-67.01l3.02.84,2.88,1.64c181.66,103.62,163.8,190.1,158.6,205.97l.06.02c-29.68,95.48-104.18,115.36-104.39,115.42l-1.95.54-1.69.22c-161.21,20.81-187.9,219.22-187.98,219.78l-2.39,16.77-16.2,4.78c-38.96,11.5-75.06,11.85-107.96,4.86-32.4-6.88-61.56-20.98-87.22-38.54-81-55.43-125.87-146.29-126-146.55l-11.54-23.18,22.93-11.97ZM3268.45,1794.09c-.44.62-143.84,203.3-277.05,287.16,16.55,26.82,49.51,73.04,96.43,105.15,20.22,13.84,43.14,24.94,68.49,30.32,20.53,4.36,42.76,4.92,66.61.04,11.93-55.49,61.56-223.65,227.89-246.61,7.81-2.62,47.64-18.77,66.68-80.01l.2-.67.83-1.91c.06-.15,23.7-50.14-132.3-139.95-14.22-3.27-79.03-14.31-117.01,45.35l-.79,1.13Z"/>
  <path class="cls-5" d="M3157.29,2359.59c-38.9-17.84-70.68-39.06-90.7-53.93-111.59,125.77-710.47,738.63-1550.63,442-157.02-55.44-316.16-157.85-477.17-261.49-162.19-104.38-326.33-210.03-488.64-267.2-21.2,1.97-41.26,7.16-60,14.46-15.05,5.87-29.27,13.11-42.53,21.14,337,488.46,705.64,745.98,1061.25,850.57,226.25,66.54,447.39,71.26,651.74,34.28,204.58-37.02,392.51-115.87,552.02-216.33,247.56-155.92,425.79-362.96,490.68-545.56-16.14-5.16-31.56-11.32-46.01-17.95"/>
  <path class="cls-7" d="M2559.55,2687.43c-268.15,130.42-626.06,207.64-1043.59,60.23-157.02-55.44-316.16-157.85-477.17-261.49-162.19-104.38-326.33-210.03-488.64-267.2-21.2,1.97-41.26,7.16-60,14.46-15.05,5.87-29.27,13.11-42.53,21.14,71.8,104.06,145.03,197.61,219.27,281.46-1.28-3.12-94.38-231.85,236.69,6.4,333.34,239.89,1194.22,478.3,1655.79,145.13l.19-.14Z"/>
  <path class="cls-6" d="M3260.87,2390.78c-67.41,195.9-255.62,417.39-516.98,581.99-165.35,104.14-360.37,185.91-572.95,224.38-212.82,38.51-443.1,33.62-678.64-35.66-367.13-107.98-746.71-372.22-1092.04-872.21-34.69,29.97-57.96,60.58-67.28,73.78-.49,131.02,38.4,265.49,108.5,395.51,84.89,157.45,215.36,308.23,377.18,438.7,162.48,131.01,356.24,241.35,566.97,317.3,426.28,153.66,922.16,166.82,1369.05-74.13,222.89-120.17,442.36-267.37,577.09-451.24,126.37-172.45,178.02-378.73,86.09-627.77-52.47,30.25-106.68,36.11-157,29.35"/>
  <path class="cls-3" d="M3247.06,2328.71c19.15,4.22,39.16,6.4,59.45,5.44,31-1.54,62.56-10.39,92.77-30.34-.41-2.41-.84-5.02-1.27-7.81-10.53-68.36-21.66-247.14,127.26-337.89,2.21-1.35,4.47-2.68,6.75-3.99,6.97-5.96,41.4-39.23,35.57-110.43l-.06-.78.06-2.33c0-.18,3.6-61.66-194.97-89.49-16.06,2.55-87.61,18.13-101.99,95.59l-.35,1.5c-.2.82-63.92,269.95-166.64,412.06,28.27,20.82,81.57,54.84,143.42,68.47"/>
  <path class="cls-3" d="M389.29,2222.98c16.89-12.36,35.51-24,55.66-33.83-27.74-5.82-55.41-9.88-82.98-11.94-9.15,28.58-16.07,57.53-20.85,86.76,13.97-13.65,30.09-27.77,48.17-40.99"/>
  <path class="cls-8" d="M389.74,2786.39c-115.34-213.93-151.3-440.61-75.97-649.59l7.28-20.2,21.35.77c245.66,8.85,488.96,165.45,728.11,319.36,158.11,101.76,314.37,202.33,464.98,255.51,893.02,315.29,1502.59-443.62,1504.36-445.79l.46-.46c100.79-118.07,167.89-390.53,172.65-410.22,24.46-130.52,156.04-143.49,156.42-143.53l3.47-.39,3.66.49c230.84,31.41,248.4,128.19,249.63,146.74h.08c9.1,110.99-59.59,162.56-59.79,162.71l-1.8,1.37-1.65.93c-149.11,83.71-108.31,281.08-103.18,303.28,117.75,285.72,62.63,520.96-80.67,716.54-140.96,192.36-367.36,344.63-596.65,468.26-463.12,249.7-976.12,236.38-1416.65,77.58-217.21-78.29-416.77-191.91-583.99-326.73-167.88-135.36-303.52-292.31-392.12-456.64M361.97,2177.21c-59.69,186.42-24.32,388.77,79.51,581.36,84.89,157.45,215.36,308.23,377.18,438.7,162.48,131.01,356.24,241.35,566.97,317.3,426.28,153.66,922.16,166.82,1369.05-74.13,222.89-120.17,442.36-267.37,577.09-451.24,132.02-180.17,182.49-397.25,72.89-661.45l-.82-1.97-.56-2.28c-.19-.75-65.76-257.92,128.74-369.37,6.97-5.96,41.4-39.23,35.57-110.43l-.06-.78.06-2.33c0-.18,3.6-61.66-194.97-89.49-16.06,2.55-87.61,18.13-101.99,95.59l-.35,1.5c-.21.87-71.55,302.15-184.92,435.49l.04.04c-1.85,2.26-637.07,793.14-1569.44,463.96-157.02-55.44-316.16-157.85-477.17-261.49-225.22-144.95-454.22-292.33-676.82-308.96Z"/>
  <path class="cls-8" d="M3081.95,2242.99c.54.47,185.91,165.92,331.57,50.48l36.57,46c-184.53,146.24-406.13-51.76-406.77-52.32l38.63-44.16Z"/>
  <path class="cls-8" d="M341.37,2146.69l24.83-15.64c4.9,7.78,9.81,15.48,14.73,23.16l-39.56-7.52ZM325.15,2175.88c-2.87-4.51-5.75-9-8.61-13.55l24.84-15.64-16.22,29.19ZM3268.9,2365.62c-59.38,201.88-252.4,435.46-525.01,607.16-165.35,104.14-360.37,185.91-572.95,224.38-212.82,38.51-443.1,33.62-678.64-35.66-371.04-109.13-754.79-377.86-1103.04-888.24,13.98-12.5,29.38-25.52,45.3-37.74,340.52,500.84,714.1,763.69,1074.31,869.64,226.25,66.54,447.39,71.26,651.74,34.28,204.58-37.02,392.51-115.87,552.02-216.33,260.54-164.09,444.29-384.81,499.94-574.04l56.35,16.56Z"/>
  <path class="cls-8" d="M490.15,2233.44c-24.4,9.51-46.59,22.61-66.13,36.92-60.6,44.34-95.51,99.27-95.61,99.43l-27.91,43.35-12.11-102.89-7.62-39.64c1.28-9.22,2.75-18.41,4.42-27.58,6.52-35.85,16-71.31,28.59-106.23l7.28-20.2,21.35.77c37.04,1.34,74.06,6.04,111.05,13.61,36.6,7.48,73.32,17.83,110.1,30.52l22.22,7.67-.06.17,52.1,43.91-81.96,5.29c-23.3,1.5-45.29,6.95-65.7,14.91M389.29,2222.98c16.89-12.36,35.51-24,55.69-33.84l-3.24-.67c-26.66-5.45-53.26-9.28-79.78-11.26-8.06,25.14-14.38,50.55-19.04,76.16-.65,3.54-1.26,7.09-1.84,10.64,13.98-13.66,30.12-27.8,48.21-41.04Z"/>
  <path class="cls-8" d="M3040.32,2245.99c100.79-118.07,167.89-390.53,172.65-410.22,24.46-130.52,156.04-143.49,156.42-143.53l3.47-.39,3.66.49c230.84,31.41,248.4,128.19,249.63,146.74h.08c9.1,110.99-59.59,162.56-59.79,162.71l-1.8,1.37-1.65.93c-157.88,88.64-102.84,304.74-102.68,305.36l4.52,18.32-14.75,11.69c-35.46,28.11-72.61,43.5-109.52,49.98-36.34,6.38-72.34,3.96-106.16-3.49-106.78-23.54-190.97-98.72-191.21-98.94l-21.58-19.13,18.7-21.91ZM3270.28,1848.17c-.2.82-63.93,269.94-166.64,412.06,28.27,20.82,81.57,54.84,143.42,68.47,26.65,5.87,54.95,7.79,83.39,2.8,23.02-4.04,46.23-12.73,68.83-27.7-10.78-62.3-29.55-256.7,132.74-349.69,6.97-5.96,41.4-39.23,35.57-110.43l-.06-.78.06-2.33c0-.18,3.6-61.66-194.97-89.49-16.06,2.55-87.61,18.13-101.99,95.59l-.35,1.5Z"/>
  <path class="cls-2" d="M1754.38,2509.52c8.52,191.59-187.87,173.28-369.19,116.51,50.62,26.1,100.77,48.72,150.32,66.21,504.57,178.14,918.65,13.36,1183.73-164.1,45.78-30.65,87.12-61.68,123.71-91.38,19.3-15.67,37.28-30.97,53.9-45.65-53.54,32.52-113.39,62.09-178.16,87.61-71.96,28.35-149.99,51.7-232.17,68.55-11.2,2.29-22.47,4.47-33.81,6.52-172.63,31.21-362.45,33.84-552.36-5.48-48.76-10.1-97.51-22.95-145.97-38.79"/>
  <path class="cls-2" d="M2304.32,3166.86c82.38,535-1215.31,212.49-1215.31,212.49,93.64,52.29,193.08,97.91,296.61,135.23,426.28,153.66,922.16,166.82,1369.05-74.13,222.89-120.17,442.36-267.37,577.09-451.24,126.37-172.45,178.02-378.73,86.09-627.77-52.47,30.25-106.68,36.11-157,29.35-.99,2.88-2.01,5.78-3.06,8.68-49.41,136.89-157.01,285.59-306.73,418.28-62.18,55.1-131.63,107.45-207.19,155.04-130.11,81.95-278.6,150.04-439.57,194.09"/>
  <path class="cls-1" d="M2522.2,2967.69c-89.02,95-231.05,141.97-231.05,141.97,154.15-42.45,296.53-107.88,421.47-186.57,2.43-1.54,4.86-3.07,7.28-4.61,63.19-40.28,121.78-83.87,175.03-129.5,152.19-130.41,260.77-277.5,308.37-411.44-16.14-5.16-31.56-11.32-46.01-17.95-35.18-16.14-64.55-35.04-84.66-49.49-2.12-1.52-4.14-3-6.04-4.44-25.96,29.27-78.32,84.91-153.97,149.33-87.92,74.88-207.3,161.61-353.27,232.57,45.73,85.33,39.56,157.55,8.61,216.83-12.04,23.06-27.83,44.15-45.77,63.3"/>
  <path class="cls-1" d="M2950.78,1992.35c-.59-1.3-1.17-2.59-1.74-3.88.57,1.29,1.15,2.59,1.74,3.88M2774.78,1919.73c-310.8,203.67-965.4-45.9-965.4-45.9,32.59,24.05,66.05,46.14,100.16,66.35,147.36,87.32,306.89,139.61,460.4,163.12,238.25,36.48,460.91,3.72,599.81-74.95-6.83-11.21-12.8-22.63-17.99-33.86-15.2-32.88-23.81-64.14-28.35-84.64-28.24,3.72-80.41,9.15-148.63,9.88Z"/>
  <path class="cls-1" d="M2945.3,2106.64c-75.45,37.56-328.34,150.56-641.44,150.98,146.79,82.79,88.19,164.85-2.61,224.79-21.34,14.09-44.47,26.96-67.12,38.33-2.42,1.21-4.82,2.41-7.23,3.58,7.85-.21,15.69-.49,23.5-.83,66.03-2.88,130.64-10.29,192.94-21.56,6.79-1.23,13.57-2.5,20.3-3.82,249.55-48.85,459.08-158.91,571.36-285.74-11.7-9.72-22.48-20.01-32.28-30.38-.55-.58-1.09-1.15-1.63-1.73-25.57-27.35-44.37-54.92-55.79-73.63"/>
  <path class="cls-9" d="M3247.06,2328.71c6.84,1.51,13.8,2.75,20.83,3.69-7.03-.94-13.99-2.18-20.83-3.69M3211.61,2040.5c-4.41,12.1-9.05,24.39-13.91,36.75-17.96,45.69-38.91,92.27-62.48,133.54-6.72,11.77-13.65,23.11-20.79,33.86-2.62,3.96-5.27,7.84-7.96,11.62-.03.04-.06.09-.08.14-.91,1.29-1.83,2.57-2.76,3.83.43.32.87.64,1.31.97,23.72,17.38,63.82,43.19,111.06,59.06,16.54,5.55,33.96,9.9,51.86,12.23,12.58,1.64,25.39,2.29,38.3,1.67.11-.01.22-.01.33-.02,31-1.54,62.56-10.39,92.77-30.34-.41-2.41-.84-5.02-1.27-7.81-8.37-54.37-17.11-178.55,54.52-272.76.41-.53.82-1.07,1.23-1.6-.5.55-.99,1.1-1.49,1.65-60.85,67.36-107.15,99.3-142.35,107.92-22.36,5.47-40.23,1.52-54.51-8.74-18.78-13.49-31.32-37.89-39.65-66.18-1.52-5.16-2.9-10.44-4.15-15.79ZM3532.03,1954.12c4.71-4.03,21.94-20.52,30.84-52.73-28.36,28.51-58.08,60.82-89.16,97.4,16.2-16.46,35.46-31.57,58.32-44.67Z"/>
  <path class="cls-9" d="M3130.33,2088c23.95-56.53,43.42-114.7,57.46-161.03-31.32,85.21-85.71,117.84-131.11,129.44-13.48,3.44-26.16,5.04-37.21,5.61-5.26,3.89-10.52,7.63-15.77,11.19-.03.02-.06.05-.1.07-4.07,2.76-8.13,5.42-12.19,7.97,16.04,25.99,47.5,70.21,92.14,102.14,9.14-15.78,17.89-32.52,26.21-49.79,0-.01.01-.02.02-.04,3.6-7.47,7.11-15.02,10.55-22.65,2.15-4.78,4.27-9.58,6.36-14.4,1.23-2.84,2.44-5.67,3.65-8.52"/>
  <path class="cls-9" d="M3010.53,2002.49c30.36-24.81,60.46-54.28,88.08-83.9-57.6,18.03-127.62-17.05-127.62-17.05,5.42,24.02,16.99,63.82,39.54,100.94"/>
  <path class="cls-4" d="M3240.89,1953.39s134.26-126.65,240.87-123.61c4.97.14,9.88.57,14.72,1.3,13.27,2,25.96,6.33,37.75,13.53,12.17,7.42,23.36,17.9,33.2,32.02.44-4.38.72-8.95.8-13.73.11-6.07-.08-12.47-.63-19.21l-.06-.78.06-2.33c0-.1,1.13-19.33-32.49-41.13-6.2-4.03-13.6-8.14-22.39-12.24-17.65-8.22-40.96-16.37-71.76-23.61-12.62-2.97-26.5-5.79-41.77-8.4-8.43-1.44-17.28-2.81-26.56-4.12-16.06,2.55-87.61,18.13-101.99,95.59l-.35,1.5c-.08.33-10.4,43.94-29.39,105.22"/>
</svg>